<svg xmlns="http://www.w3.org/2000/svg" width="13.295" height="25.534" viewBox="0 0 13.295 25.534">
  <g id="dollar-symbol" transform="translate(-122.611)">
    <path id="Path_8" data-name="Path 8" d="M135.719,15.545a5.15,5.15,0,0,0-.449-1.09,3.687,3.687,0,0,0-.755-.905,9.017,9.017,0,0,0-.883-.712,8.612,8.612,0,0,0-1.076-.606q-.684-.335-1.082-.5t-1.155-.449q-.67-.256-1-.392t-.862-.385a5.025,5.025,0,0,1-.8-.442,6.271,6.271,0,0,1-.563-.47,1.6,1.6,0,0,1-.42-.591,1.916,1.916,0,0,1,.734-2.266,3.7,3.7,0,0,1,2.209-.613,4.749,4.749,0,0,1,1.218.164,6.371,6.371,0,0,1,1.061.37,7.373,7.373,0,0,1,.834.456q.392.249.556.378c.109.086.178.142.207.171a.454.454,0,0,0,.385.1.389.389,0,0,0,.328-.228l1.154-2.08a.412.412,0,0,0-.071-.542c-.057-.057-.128-.123-.214-.2s-.271-.214-.556-.413a6.879,6.879,0,0,0-.9-.534,9.151,9.151,0,0,0-1.24-.477,7.9,7.9,0,0,0-1.575-.328V.456A.438.438,0,0,0,130.348,0h-1.924a.438.438,0,0,0-.321.135.438.438,0,0,0-.135.321V3.021a6.519,6.519,0,0,0-3.634,1.909,4.872,4.872,0,0,0-1.4,3.448,4.948,4.948,0,0,0,.121,1.111,5.69,5.69,0,0,0,.3.948,3.487,3.487,0,0,0,.506.827,8.85,8.85,0,0,0,.62.7,5.032,5.032,0,0,0,.762.605q.47.314.805.506t.891.441q.556.25.876.378t.876.356q.769.3,1.14.463t.941.456a3.9,3.9,0,0,1,.833.534,2.679,2.679,0,0,1,.477.6,1.444,1.444,0,0,1,.214.755,2,2,0,0,1-.876,1.738,3.454,3.454,0,0,1-2.031.613,4.978,4.978,0,0,1-1.054-.114,7.444,7.444,0,0,1-3.463-1.781l-.028-.028a.353.353,0,0,0-.342-.128.443.443,0,0,0-.328.171l-1.468,1.923a.433.433,0,0,0,.029.584q.071.086.249.257a8.249,8.249,0,0,0,.663.535,8.744,8.744,0,0,0,2.5,1.318,9,9,0,0,0,1.817.441v2.494a.462.462,0,0,0,.456.456h1.924a.438.438,0,0,0,.456-.456V22.585a6.118,6.118,0,0,0,3.684-1.945,5.421,5.421,0,0,0,1.418-3.755A4.684,4.684,0,0,0,135.719,15.545Z" transform="translate(0 0)" fill="#c0c5d8"/>
  </g>
</svg>
