<svg xmlns="http://www.w3.org/2000/svg" width="15.029" height="19.73" viewBox="0 0 15.029 19.73">
  <g id="google-docs" transform="translate(-61)">
    <path id="Path_9" data-name="Path 9" d="M75.86,4.794,71.235.169A.579.579,0,0,0,70.827,0H62.734A1.736,1.736,0,0,0,61,1.734V18a1.736,1.736,0,0,0,1.734,1.734H74.295A1.736,1.736,0,0,0,76.029,18V5.2A.583.583,0,0,0,75.86,4.794ZM71.4,1.974l2.651,2.651H71.983a.579.579,0,0,1-.578-.578Zm2.89,16.6H62.734A.579.579,0,0,1,62.156,18V1.734a.579.579,0,0,1,.578-.578h7.514v2.89A1.736,1.736,0,0,0,71.983,5.78h2.89V18A.579.579,0,0,1,74.295,18.574Z" fill="#c0c5d8"/>
    <path id="Path_10" data-name="Path 10" d="M158.514,212h-6.936a.578.578,0,1,0,0,1.156h6.936a.578.578,0,0,0,0-1.156Z" transform="translate(-86.532 -203.83)" fill="#c0c5d8"/>
    <path id="Path_11" data-name="Path 11" d="M158.514,272h-6.936a.578.578,0,1,0,0,1.156h6.936a.578.578,0,1,0,0-1.156Z" transform="translate(-86.532 -261.518)" fill="#c0c5d8"/>
    <path id="Path_12" data-name="Path 12" d="M158.514,332h-6.936a.578.578,0,1,0,0,1.156h6.936a.578.578,0,0,0,0-1.156Z" transform="translate(-86.532 -319.206)" fill="#c0c5d8"/>
    <path id="Path_13" data-name="Path 13" d="M156.2,392h-4.624a.578.578,0,1,0,0,1.156H156.2a.578.578,0,0,0,0-1.156Z" transform="translate(-86.532 -376.894)" fill="#c0c5d8"/>
  </g>
</svg>
