<svg id="Group_80" data-name="Group 80" xmlns="http://www.w3.org/2000/svg" width="34.168" height="30.457" viewBox="0 0 34.168 30.457">
  <path id="Path_38" data-name="Path 38" d="M195.034,37.7l-20.926-4.429a1.65,1.65,0,0,0-1.95,1.269l-.4,2.555,24.146,5.11.4-2.555A1.65,1.65,0,0,0,195.034,37.7Z" transform="translate(-162.17 -33.234)" fill="#0015c2"/>
  <path id="Path_39" data-name="Path 39" d="M24.063,169.166a1.666,1.666,0,0,0-2.044-1.156l-3.973,1.1L8.681,167.13,7.651,172l-6.435,1.786A1.666,1.666,0,0,0,.06,175.827L3.687,188.9a1.666,1.666,0,0,0,2.044,1.156l20.8-5.773a1.666,1.666,0,0,0,1.156-2.044l-.623-2.244,2.333.493a1.65,1.65,0,0,0,1.95-1.269l1.476-6.975-8.4-1.778Zm2.4,6.642.514-2.432a.679.679,0,0,1,.8-.522l2.432.515a.679.679,0,0,1,.522.8l-.514,2.432a.679.679,0,0,1-.8.522l-2.432-.514A.679.679,0,0,1,26.466,175.808Zm-24.888-.721,5.757-1.6,13.584-3.77,1.462-.406a.3.3,0,0,1,.079-.011.314.314,0,0,1,.3.224l.172.618.538,1.938L2.074,178.02l-.709-2.555A.311.311,0,0,1,1.578,175.087ZM26.385,182.6a.312.312,0,0,1-.214.378l-20.8,5.773a.3.3,0,0,1-.079.011.314.314,0,0,1-.3-.225L2.876,180.91l21.394-5.937,1.3,4.7Z" transform="translate(0 -159.654)" fill="#0015c2"/>
  <path id="Path_40" data-name="Path 40" d="M92.816,445.1a.679.679,0,0,0-.833-.471l-2.429.674a.679.679,0,0,0-.471.833l.674,2.429a.679.679,0,0,0,.833.471l2.429-.674a.679.679,0,0,0,.471-.833Z" transform="translate(-84.085 -421.634)" fill="#0015c2"/>
</svg>
