<svg id="Group_5" data-name="Group 5" xmlns="http://www.w3.org/2000/svg" width="19" height="19" viewBox="0 0 19 19">
  <g id="Group_4" data-name="Group 4" transform="translate(0)">
    <path id="Path_4" data-name="Path 4" d="M7.022,0H1.239A1.24,1.24,0,0,0,0,1.239V7.022A1.241,1.241,0,0,0,1.239,8.261H7.022A1.241,1.241,0,0,0,8.261,7.022V1.239A1.241,1.241,0,0,0,7.022,0Zm.413,7.022a.414.414,0,0,1-.413.413H1.239a.414.414,0,0,1-.413-.413V1.239A.413.413,0,0,1,1.239.826H7.022a.414.414,0,0,1,.413.413V7.022Z" transform="translate(0)" fill="#fff"/>
    <path id="Path_5" data-name="Path 5" d="M296.414,0h-5.783a1.241,1.241,0,0,0-1.239,1.239V7.022a1.241,1.241,0,0,0,1.239,1.239h5.783a1.241,1.241,0,0,0,1.239-1.239V1.239A1.241,1.241,0,0,0,296.414,0Zm.413,7.022a.413.413,0,0,1-.413.413h-5.783a.413.413,0,0,1-.413-.413V1.239a.413.413,0,0,1,.413-.413h5.783a.413.413,0,0,1,.413.413Z" transform="translate(-278.653)" fill="#fff"/>
    <path id="Path_6" data-name="Path 6" d="M7.022,289.391H1.239A1.24,1.24,0,0,0,0,290.63v5.783a1.241,1.241,0,0,0,1.239,1.239H7.022a1.241,1.241,0,0,0,1.239-1.239V290.63A1.241,1.241,0,0,0,7.022,289.391Zm.413,7.022a.413.413,0,0,1-.413.413H1.239a.413.413,0,0,1-.413-.413V290.63a.413.413,0,0,1,.413-.413H7.022a.413.413,0,0,1,.413.413v5.783Z" transform="translate(0 -278.652)" fill="#fff"/>
    <path id="Path_7" data-name="Path 7" d="M296.414,289.391h-5.783a1.241,1.241,0,0,0-1.239,1.239v5.783a1.241,1.241,0,0,0,1.239,1.239h5.783a1.241,1.241,0,0,0,1.239-1.239V290.63A1.241,1.241,0,0,0,296.414,289.391Zm.413,7.022a.413.413,0,0,1-.413.413h-5.783a.413.413,0,0,1-.413-.413V290.63a.413.413,0,0,1,.413-.413h5.783a.413.413,0,0,1,.413.413Z" transform="translate(-278.653 -278.652)" fill="#fff"/>
  </g>
</svg>
