<svg id="lifesaver" xmlns="http://www.w3.org/2000/svg" width="21.834" height="21.834" viewBox="0 0 21.834 21.834">
  <g id="Group_11" data-name="Group 11">
    <path id="Path_15" data-name="Path 15" d="M18.636,3.2A10.917,10.917,0,0,0,3.2,18.636,10.917,10.917,0,0,0,18.636,3.2ZM10.917,1.279a9.6,9.6,0,0,1,6.344,2.389L14.284,6.645a5.43,5.43,0,0,0-6.734,0L4.573,3.668A9.6,9.6,0,0,1,10.917,1.279Zm4.162,9.637a4.162,4.162,0,1,1-4.162-4.162A4.167,4.167,0,0,1,15.079,10.917Zm-13.8,0A9.6,9.6,0,0,1,3.668,4.573L6.645,7.55a5.43,5.43,0,0,0,0,6.734L3.668,17.261A9.6,9.6,0,0,1,1.279,10.917Zm9.637,9.637a9.6,9.6,0,0,1-6.344-2.389L7.55,15.188a5.43,5.43,0,0,0,6.734,0l2.977,2.977A9.6,9.6,0,0,1,10.917,20.554Zm7.249-3.294-2.977-2.977a5.43,5.43,0,0,0,0-6.734l2.977-2.977a9.618,9.618,0,0,1,0,12.688Z" fill="#c0c5d8"/>
  </g>
</svg>
