<svg xmlns="http://www.w3.org/2000/svg" width="19.494" height="19" viewBox="0 0 19.494 19">
  <g id="send" transform="translate(0 -6.197)">
    <g id="Group_18" data-name="Group 18" transform="translate(0 6.197)">
      <path id="Path_29" data-name="Path 29" d="M19.29,14.806a2.042,2.042,0,0,0-.948-.948L2.933,6.4A2.042,2.042,0,0,0,.146,9l2.679,6.7-2.679,6.7a2.043,2.043,0,0,0,2.786,2.6l15.409-7.458A2.042,2.042,0,0,0,19.29,14.806ZM2.34,23.765a.681.681,0,0,1-.929-.866L4.02,16.377H17.609Zm1.68-8.75L1.411,8.493a.68.68,0,0,1,.929-.864l15.269,7.386H4.02Z" transform="translate(0 -6.197)" fill="#fff"/>
    </g>
  </g>
</svg>
