<svg xmlns="http://www.w3.org/2000/svg" width="21.327" height="21.327" viewBox="0 0 21.327 21.327">
  <g id="user_2_" data-name="user (2)" transform="translate(0)">
    <g id="Group_9" data-name="Group 9" transform="translate(0)">
      <path id="Path_14" data-name="Path 14" d="M18.2,13.787a10.623,10.623,0,0,0-4.052-2.542,6.165,6.165,0,1,0-6.976,0A10.68,10.68,0,0,0,0,21.327H1.666a9,9,0,0,1,17.995,0h1.666A10.594,10.594,0,0,0,18.2,13.787Zm-7.54-3.123a4.5,4.5,0,1,1,4.5-4.5A4.5,4.5,0,0,1,10.664,10.664Z" transform="translate(0 0)" fill="#c0c5d8"/>
    </g>
  </g>
</svg>
