<svg xmlns="http://www.w3.org/2000/svg" width="32.538" height="21.221" viewBox="0 0 32.538 21.221">
  <g id="user_3_" data-name="user (3)" transform="translate(0 -85.333)">
    <g id="Group_82" data-name="Group 82" transform="translate(11.318 85.333)">
      <g id="Group_81" data-name="Group 81" transform="translate(0 0)">
        <circle id="Ellipse_3" data-name="Ellipse 3" cx="4.951" cy="4.951" r="4.951" fill="#f57819"/>
      </g>
    </g>
    <g id="Group_84" data-name="Group 84" transform="translate(22.635 90.992)">
      <g id="Group_83" data-name="Group 83" transform="translate(0 0)">
        <circle id="Ellipse_4" data-name="Ellipse 4" cx="3.537" cy="3.537" r="3.537" fill="#f57819"/>
      </g>
    </g>
    <g id="Group_86" data-name="Group 86" transform="translate(2.93 90.992)">
      <g id="Group_85" data-name="Group 85" transform="translate(0 0)">
        <circle id="Ellipse_5" data-name="Ellipse 5" cx="3.537" cy="3.537" r="3.537" fill="#f57819"/>
      </g>
    </g>
    <g id="Group_88" data-name="Group 88" transform="translate(7.073 96.651)">
      <g id="Group_87" data-name="Group 87" transform="translate(0 0)">
        <path id="Path_41" data-name="Path 41" d="M115.862,256a9.206,9.206,0,0,0-9.2,9.2.708.708,0,0,0,.707.707H124.35a.708.708,0,0,0,.707-.707A9.206,9.206,0,0,0,115.862,256Z" transform="translate(-106.666 -256)" fill="#f57819"/>
      </g>
    </g>
    <g id="Group_90" data-name="Group 90" transform="translate(0 99.48)">
      <g id="Group_89" data-name="Group 89">
        <path id="Path_42" data-name="Path 42" d="M7.686,298.82a6.348,6.348,0,0,0-1.32-.153A6.374,6.374,0,0,0,0,305.033a.708.708,0,0,0,.707.707H5.789a2.1,2.1,0,0,1-.13-.707A10.544,10.544,0,0,1,7.686,298.82Z" transform="translate(0 -298.667)" fill="#f57819"/>
      </g>
    </g>
    <g id="Group_92" data-name="Group 92" transform="translate(24.852 99.48)">
      <g id="Group_91" data-name="Group 91" transform="translate(0 0)">
        <path id="Path_43" data-name="Path 43" d="M376.083,298.667a6.346,6.346,0,0,0-1.32.153,10.544,10.544,0,0,1,2.027,6.213,2.1,2.1,0,0,1-.13.707h5.082a.708.708,0,0,0,.707-.707A6.374,6.374,0,0,0,376.083,298.667Z" transform="translate(-374.763 -298.667)" fill="#f57819"/>
      </g>
    </g>
  </g>
</svg>
